<svg width="32" height="25" viewBox="0 0 32 25" fill="none" xmlns="http://www.w3.org/2000/svg">
<g clip-path="url(#clip0_1078_20926)">
<path d="M30.4434 14.5C30.3575 14.4999 30.2733 14.4748 30.2003 14.4276C30.1272 14.3803 30.0682 14.3127 30.0297 14.2323C29.9913 14.1519 29.9749 14.062 29.9825 13.9724C29.9902 13.8829 30.0214 13.7973 30.0728 13.7253C30.8581 12.6134 31.203 11.2271 31.0357 9.85551C30.8683 8.48392 30.2016 7.23286 29.1745 6.36312C29.0785 6.2831 29.0168 6.16645 29.0029 6.03882C28.9891 5.9112 29.0243 5.78305 29.1008 5.68258C29.1772 5.58211 29.2887 5.51754 29.4106 5.50308C29.5326 5.48862 29.655 5.52545 29.751 5.60547C30.9649 6.63323 31.753 8.11162 31.951 9.73251C32.1491 11.3534 31.7417 12.9918 30.814 14.3061C30.7709 14.3663 30.7149 14.4152 30.6506 14.4489C30.5862 14.4826 30.5153 14.5001 30.4434 14.5Z" fill="white"/>
<path d="M27.9086 12.7563C27.8157 12.7562 27.7246 12.7311 27.6457 12.6838C27.5667 12.6364 27.5029 12.5687 27.4614 12.4882C27.4199 12.4078 27.4024 12.3177 27.4108 12.2281C27.4192 12.1386 27.4532 12.053 27.509 11.9811C27.8956 11.475 28.065 10.8436 27.9818 10.2193C27.8986 9.5949 27.5692 9.02589 27.0626 8.63132C26.9591 8.55143 26.8925 8.43504 26.8774 8.30767C26.8624 8.1803 26.9002 8.05236 26.9824 7.95192C27.0647 7.85147 27.1847 7.78672 27.3162 7.77188C27.4477 7.75703 27.58 7.7933 27.6839 7.87273C28.3934 8.42503 28.8547 9.2218 28.9711 10.0961C29.0874 10.9704 28.8498 11.8544 28.3081 12.5628C28.2616 12.623 28.2013 12.6718 28.132 12.7054C28.0626 12.739 27.9861 12.7564 27.9086 12.7563ZM1.68246 14.5C1.60473 14.5001 1.52805 14.4826 1.45852 14.4489C1.38899 14.4152 1.32852 14.3663 1.28192 14.3061C0.279157 12.9918 -0.1611 11.3534 0.0529105 9.73253C0.266921 8.11163 1.11869 6.63323 2.43068 5.60547C2.53444 5.52545 2.66678 5.48862 2.79858 5.50308C2.93039 5.51754 3.05086 5.58211 3.1335 5.68258C3.21613 5.78305 3.25417 5.91119 3.23923 6.03882C3.2243 6.16644 3.15762 6.2831 3.05386 6.36312C1.94375 7.23286 1.22314 8.48392 1.04224 9.8555C0.861351 11.2271 1.23413 12.6134 2.08289 13.7253C2.13845 13.7973 2.17223 13.8829 2.18046 13.9724C2.18868 14.062 2.17103 14.1519 2.12948 14.2323C2.08792 14.3127 2.0241 14.3803 1.94515 14.4276C1.86619 14.4748 1.77521 14.4999 1.68238 14.5L1.68246 14.5Z" fill="white"/>
<path d="M4.02688 13.5C3.95392 13.5001 3.88193 13.4827 3.81667 13.449C3.75141 13.4153 3.69468 13.3664 3.651 13.3061C3.14128 12.5959 2.91773 11.7097 3.0272 10.8332C3.13667 9.95678 3.57066 9.15803 4.23824 8.60437C4.33601 8.52474 4.4604 8.48838 4.58412 8.50327C4.70784 8.51815 4.82079 8.58306 4.89818 8.68375C4.97558 8.78445 5.0111 8.9127 4.99696 9.04039C4.98281 9.16807 4.92016 9.28475 4.82274 9.36483C4.34612 9.76038 4.03624 10.3308 3.95796 10.9567C3.87968 11.5826 4.03905 12.2155 4.40274 12.7229C4.45522 12.795 4.48721 12.8808 4.49512 12.9706C4.50303 13.0603 4.48656 13.1506 4.44753 13.2313C4.40851 13.312 4.34849 13.3798 4.27419 13.4273C4.19989 13.4748 4.11425 13.4999 4.02686 13.5L4.02688 13.5Z" fill="white"/>
<path d="M6.03793 17.9871C6.17717 18.7052 6.56444 19.3505 7.1312 19.8089C7.69796 20.2673 8.40767 20.5093 9.1347 20.4919H12.2192C12.219 21.0183 12.3219 21.5396 12.522 22.026C12.7221 22.5124 13.0156 22.9544 13.3856 23.3266C13.7557 23.6988 14.195 23.994 14.6785 24.1954C15.162 24.3967 15.6802 24.5002 16.2035 24.4999C18.404 24.4999 19.9825 22.707 19.9825 20.4919H22.8621C23.5891 20.5093 24.2989 20.2673 24.8656 19.8089C25.4324 19.3505 25.8196 18.7052 25.9589 17.9871C26.0616 17.3708 25.9708 16.7377 25.6991 16.1757C25.4274 15.6138 24.9883 15.151 24.443 14.8517C24.3034 14.7638 24.1892 14.6405 24.112 14.4941C24.0347 14.3478 23.9971 14.1836 24.0029 14.018V10.7621C24.0094 9.12846 23.5419 7.52845 22.6578 6.15816C21.7736 4.78787 20.5113 3.70682 19.0255 3.04753C18.9167 2.33814 18.5591 1.69134 18.0174 1.22409C17.4758 0.756847 16.7858 0.5 16.0722 0.5C15.3587 0.5 14.6687 0.756847 14.1271 1.22409C13.5854 1.69134 13.2278 2.33814 13.119 3.04753C12.1505 3.43512 11.2674 4.01078 10.52 4.74165C9.7409 5.47751 9.11848 6.36488 8.69047 7.34996C8.26246 8.33504 8.03779 9.39729 8.03007 10.4723V14.018C8.03755 14.1838 8.00067 14.3487 7.92326 14.4953C7.84586 14.642 7.73077 14.7651 7.58998 14.8517C7.03822 15.1459 6.59185 15.6064 6.3135 16.1688C6.03515 16.7311 5.93879 17.3669 6.03793 17.9871V17.9871Z" fill="#FFBA5E"/>
<path d="M12 20.5C11.9997 21.0253 12.1056 21.5456 12.3118 22.031C12.518 22.5164 12.8204 22.9575 13.2017 23.329C13.5829 23.7005 14.0356 23.9951 14.5339 24.196C15.0321 24.397 15.5661 24.5003 16.1053 24.5C18.3729 24.5 20 22.7106 20 20.5H12Z" fill="#FFA021"/>
</g>
<defs>
<clipPath id="clip0_1078_20926">
<rect width="32" height="24" fill="white" transform="translate(0 0.5)"/>
</clipPath>
</defs>
</svg>
